<svg xmlns="http://www.w3.org/2000/svg" viewBox="0 0 20 20" shape-rendering="crispEdges"><rect x="5.7" y="3.7" width="1.6" height="1.6" fill="rgb(217,70,239)" opacity="0.18"/><rect x="12.7" y="3.7" width="1.6" height="1.6" fill="rgb(217,70,239)" opacity="0.18"/><rect x="6.7" y="4.7" width="1.6" height="1.6" fill="rgb(217,70,239)" opacity="0.18"/><rect x="11.7" y="4.7" width="1.6" height="1.6" fill="rgb(217,70,239)" opacity="0.18"/><rect x="5.7" y="5.7" width="1.6" height="1.6" fill="rgb(217,70,239)" opacity="0.18"/><rect x="6.7" y="5.7" width="1.6" height="1.6" fill="rgb(217,70,239)" opacity="0.18"/><rect x="7.7" y="5.7" width="1.6" height="1.6" fill="rgb(217,70,239)" opacity="0.18"/><rect x="8.7" y="5.7" width="1.6" height="1.6" fill="rgb(217,70,239)" opacity="0.18"/><rect x="9.7" y="5.7" width="1.6" height="1.6" fill="rgb(217,70,239)" opacity="0.18"/><rect x="10.7" y="5.7" width="1.6" height="1.6" fill="rgb(217,70,239)" opacity="0.18"/><rect x="11.7" y="5.7" width="1.6" height="1.6" fill="rgb(217,70,239)" opacity="0.18"/><rect x="12.7" y="5.7" width="1.6" height="1.6" fill="rgb(217,70,239)" opacity="0.18"/><rect x="4.7" y="6.7" width="1.6" height="1.6" fill="rgb(217,70,239)" opacity="0.18"/><rect x="5.7" y="6.7" width="1.6" height="1.6" fill="rgb(217,70,239)" opacity="0.18"/><rect x="7.7" y="6.7" width="1.6" height="1.6" fill="rgb(217,70,239)" opacity="0.18"/><rect x="8.7" y="6.7" width="1.6" height="1.6" fill="rgb(217,70,239)" opacity="0.18"/><rect x="9.7" y="6.7" width="1.6" height="1.6" fill="rgb(217,70,239)" opacity="0.18"/><rect x="10.7" y="6.7" width="1.6" height="1.6" fill="rgb(217,70,239)" opacity="0.18"/><rect x="12.7" y="6.7" width="1.6" height="1.6" fill="rgb(217,70,239)" opacity="0.18"/><rect x="13.7" y="6.7" width="1.6" height="1.6" fill="rgb(217,70,239)" opacity="0.18"/><rect x="3.7" y="7.7" width="1.6" height="1.6" fill="rgb(217,70,239)" opacity="0.18"/><rect x="4.7" y="7.7" width="1.6" height="1.6" fill="rgb(217,70,239)" opacity="0.18"/><rect x="5.7" y="7.7" width="1.6" height="1.6" fill="rgb(217,70,239)" opacity="0.18"/><rect x="6.7" y="7.7" width="1.6" height="1.6" fill="rgb(217,70,239)" opacity="0.18"/><rect x="7.7" y="7.7" width="1.6" height="1.6" fill="rgb(217,70,239)" opacity="0.18"/><rect x="8.7" y="7.7" width="1.6" height="1.6" fill="rgb(217,70,239)" opacity="0.18"/><rect x="9.7" y="7.7" width="1.6" height="1.6" fill="rgb(217,70,239)" opacity="0.18"/><rect x="10.7" y="7.7" width="1.6" height="1.6" fill="rgb(217,70,239)" opacity="0.18"/><rect x="11.7" y="7.7" width="1.6" height="1.6" fill="rgb(217,70,239)" opacity="0.18"/><rect x="12.7" y="7.7" width="1.6" height="1.6" fill="rgb(217,70,239)" opacity="0.18"/><rect x="13.7" y="7.7" width="1.6" height="1.6" fill="rgb(217,70,239)" opacity="0.18"/><rect x="14.7" y="7.7" width="1.6" height="1.6" fill="rgb(217,70,239)" opacity="0.18"/><rect x="3.7" y="8.7" width="1.6" height="1.6" fill="rgb(217,70,239)" opacity="0.18"/><rect x="5.7" y="8.7" width="1.6" height="1.6" fill="rgb(217,70,239)" opacity="0.18"/><rect x="6.7" y="8.7" width="1.6" height="1.6" fill="rgb(217,70,239)" opacity="0.18"/><rect x="7.7" y="8.7" width="1.6" height="1.6" fill="rgb(217,70,239)" opacity="0.18"/><rect x="8.7" y="8.7" width="1.6" height="1.6" fill="rgb(217,70,239)" opacity="0.18"/><rect x="9.7" y="8.7" width="1.6" height="1.6" fill="rgb(217,70,239)" opacity="0.18"/><rect x="10.7" y="8.7" width="1.6" height="1.6" fill="rgb(217,70,239)" opacity="0.18"/><rect x="11.7" y="8.7" width="1.6" height="1.6" fill="rgb(217,70,239)" opacity="0.18"/><rect x="12.7" y="8.7" width="1.6" height="1.6" fill="rgb(217,70,239)" opacity="0.18"/><rect x="14.7" y="8.7" width="1.6" height="1.6" fill="rgb(217,70,239)" opacity="0.18"/><rect x="3.7" y="9.7" width="1.6" height="1.6" fill="rgb(217,70,239)" opacity="0.18"/><rect x="5.7" y="9.7" width="1.6" height="1.6" fill="rgb(217,70,239)" opacity="0.18"/><rect x="8.7" y="9.7" width="1.6" height="1.6" fill="rgb(217,70,239)" opacity="0.18"/><rect x="9.7" y="9.7" width="1.6" height="1.6" fill="rgb(217,70,239)" opacity="0.18"/><rect x="12.7" y="9.7" width="1.6" height="1.6" fill="rgb(217,70,239)" opacity="0.18"/><rect x="14.7" y="9.7" width="1.6" height="1.6" fill="rgb(217,70,239)" opacity="0.18"/><rect x="3.7" y="10.7" width="1.6" height="1.6" fill="rgb(217,70,239)" opacity="0.18"/><rect x="5.7" y="10.7" width="1.6" height="1.6" fill="rgb(217,70,239)" opacity="0.18"/><rect x="7.7" y="10.7" width="1.6" height="1.6" fill="rgb(255,255,255)" opacity="0.18"/><rect x="8.7" y="10.7" width="1.6" height="1.6" fill="rgb(217,70,239)" opacity="0.18"/><rect x="9.7" y="10.7" width="1.6" height="1.6" fill="rgb(217,70,239)" opacity="0.18"/><rect x="10.7" y="10.7" width="1.6" height="1.6" fill="rgb(255,255,255)" opacity="0.18"/><rect x="12.7" y="10.7" width="1.6" height="1.6" fill="rgb(217,70,239)" opacity="0.18"/><rect x="14.7" y="10.7" width="1.6" height="1.6" fill="rgb(217,70,239)" opacity="0.18"/><rect x="3.7" y="11.7" width="1.6" height="1.6" fill="rgb(217,70,239)" opacity="0.18"/><rect x="5.7" y="11.7" width="1.6" height="1.6" fill="rgb(217,70,239)" opacity="0.18"/><rect x="8.7" y="11.7" width="1.6" height="1.6" fill="rgb(217,70,239)" opacity="0.18"/><rect x="9.7" y="11.7" width="1.6" height="1.6" fill="rgb(217,70,239)" opacity="0.18"/><rect x="12.7" y="11.7" width="1.6" height="1.6" fill="rgb(217,70,239)" opacity="0.18"/><rect x="14.7" y="11.7" width="1.6" height="1.6" fill="rgb(217,70,239)" opacity="0.18"/><rect x="3.7" y="12.7" width="1.6" height="1.6" fill="rgb(217,70,239)" opacity="0.18"/><rect x="4.7" y="12.7" width="1.6" height="1.6" fill="rgb(217,70,239)" opacity="0.18"/><rect x="5.7" y="12.7" width="1.6" height="1.6" fill="rgb(217,70,239)" opacity="0.18"/><rect x="6.7" y="12.7" width="1.6" height="1.6" fill="rgb(217,70,239)" opacity="0.18"/><rect x="7.7" y="12.7" width="1.6" height="1.6" fill="rgb(217,70,239)" opacity="0.18"/><rect x="8.7" y="12.7" width="1.6" height="1.6" fill="rgb(217,70,239)" opacity="0.18"/><rect x="9.7" y="12.7" width="1.6" height="1.6" fill="rgb(217,70,239)" opacity="0.18"/><rect x="10.7" y="12.7" width="1.6" height="1.6" fill="rgb(217,70,239)" opacity="0.18"/><rect x="11.7" y="12.7" width="1.6" height="1.6" fill="rgb(217,70,239)" opacity="0.18"/><rect x="12.7" y="12.7" width="1.6" height="1.6" fill="rgb(217,70,239)" opacity="0.18"/><rect x="13.7" y="12.7" width="1.6" height="1.6" fill="rgb(217,70,239)" opacity="0.18"/><rect x="14.7" y="12.7" width="1.6" height="1.6" fill="rgb(217,70,239)" opacity="0.18"/><rect x="4.7" y="13.7" width="1.6" height="1.6" fill="rgb(217,70,239)" opacity="0.18"/><rect x="5.7" y="13.7" width="1.6" height="1.6" fill="rgb(217,70,239)" opacity="0.18"/><rect x="6.7" y="13.7" width="1.6" height="1.6" fill="rgb(217,70,239)" opacity="0.18"/><rect x="7.7" y="13.7" width="1.6" height="1.6" fill="rgb(217,70,239)" opacity="0.18"/><rect x="8.7" y="13.7" width="1.6" height="1.6" fill="rgb(139,26,139)" opacity="0.18"/><rect x="9.7" y="13.7" width="1.6" height="1.6" fill="rgb(139,26,139)" opacity="0.18"/><rect x="10.7" y="13.7" width="1.6" height="1.6" fill="rgb(217,70,239)" opacity="0.18"/><rect x="11.7" y="13.7" width="1.6" height="1.6" fill="rgb(217,70,239)" opacity="0.18"/><rect x="12.7" y="13.7" width="1.6" height="1.6" fill="rgb(217,70,239)" opacity="0.18"/><rect x="13.7" y="13.7" width="1.6" height="1.6" fill="rgb(217,70,239)" opacity="0.18"/><rect x="5.7" y="14.7" width="1.6" height="1.6" fill="rgb(217,70,239)" opacity="0.18"/><rect x="6.7" y="14.7" width="1.6" height="1.6" fill="rgb(217,70,239)" opacity="0.18"/><rect x="7.7" y="14.7" width="1.6" height="1.6" fill="rgb(217,70,239)" opacity="0.18"/><rect x="8.7" y="14.7" width="1.6" height="1.6" fill="rgb(217,70,239)" opacity="0.18"/><rect x="9.7" y="14.7" width="1.6" height="1.6" fill="rgb(217,70,239)" opacity="0.18"/><rect x="10.7" y="14.7" width="1.6" height="1.6" fill="rgb(217,70,239)" opacity="0.18"/><rect x="11.7" y="14.7" width="1.6" height="1.6" fill="rgb(217,70,239)" opacity="0.18"/><rect x="12.7" y="14.7" width="1.6" height="1.6" fill="rgb(217,70,239)" opacity="0.18"/><rect x="6.7" y="15.7" width="1.6" height="1.6" fill="rgb(217,70,239)" opacity="0.18"/><rect x="11.7" y="15.7" width="1.6" height="1.6" fill="rgb(217,70,239)" opacity="0.18"/><rect x="5.7" y="16.7" width="1.6" height="1.6" fill="rgb(217,70,239)" opacity="0.18"/><rect x="12.7" y="16.7" width="1.6" height="1.6" fill="rgb(217,70,239)" opacity="0.18"/><rect x="6" y="4" width="1" height="1" fill="rgb(217,70,239)"/><rect x="13" y="4" width="1" height="1" fill="rgb(217,70,239)"/><rect x="7" y="5" width="1" height="1" fill="rgb(217,70,239)"/><rect x="12" y="5" width="1" height="1" fill="rgb(217,70,239)"/><rect x="6" y="6" width="1" height="1" fill="rgb(217,70,239)"/><rect x="7" y="6" width="1" height="1" fill="rgb(217,70,239)"/><rect x="8" y="6" width="1" height="1" fill="rgb(217,70,239)"/><rect x="9" y="6" width="1" height="1" fill="rgb(217,70,239)"/><rect x="10" y="6" width="1" height="1" fill="rgb(217,70,239)"/><rect x="11" y="6" width="1" height="1" fill="rgb(217,70,239)"/><rect x="12" y="6" width="1" height="1" fill="rgb(217,70,239)"/><rect x="13" y="6" width="1" height="1" fill="rgb(217,70,239)"/><rect x="5" y="7" width="1" height="1" fill="rgb(217,70,239)"/><rect x="6" y="7" width="1" height="1" fill="rgb(217,70,239)"/><rect x="8" y="7" width="1" height="1" fill="rgb(217,70,239)"/><rect x="9" y="7" width="1" height="1" fill="rgb(217,70,239)"/><rect x="10" y="7" width="1" height="1" fill="rgb(217,70,239)"/><rect x="11" y="7" width="1" height="1" fill="rgb(217,70,239)"/><rect x="13" y="7" width="1" height="1" fill="rgb(217,70,239)"/><rect x="14" y="7" width="1" height="1" fill="rgb(217,70,239)"/><rect x="4" y="8" width="1" height="1" fill="rgb(217,70,239)"/><rect x="5" y="8" width="1" height="1" fill="rgb(217,70,239)"/><rect x="6" y="8" width="1" height="1" fill="rgb(217,70,239)"/><rect x="7" y="8" width="1" height="1" fill="rgb(217,70,239)"/><rect x="8" y="8" width="1" height="1" fill="rgb(217,70,239)"/><rect x="9" y="8" width="1" height="1" fill="rgb(217,70,239)"/><rect x="10" y="8" width="1" height="1" fill="rgb(217,70,239)"/><rect x="11" y="8" width="1" height="1" fill="rgb(217,70,239)"/><rect x="12" y="8" width="1" height="1" fill="rgb(217,70,239)"/><rect x="13" y="8" width="1" height="1" fill="rgb(217,70,239)"/><rect x="14" y="8" width="1" height="1" fill="rgb(217,70,239)"/><rect x="15" y="8" width="1" height="1" fill="rgb(217,70,239)"/><rect x="4" y="9" width="1" height="1" fill="rgb(217,70,239)"/><rect x="6" y="9" width="1" height="1" fill="rgb(217,70,239)"/><rect x="7" y="9" width="1" height="1" fill="rgb(217,70,239)"/><rect x="8" y="9" width="1" height="1" fill="rgb(217,70,239)"/><rect x="9" y="9" width="1" height="1" fill="rgb(217,70,239)"/><rect x="10" y="9" width="1" height="1" fill="rgb(217,70,239)"/><rect x="11" y="9" width="1" height="1" fill="rgb(217,70,239)"/><rect x="12" y="9" width="1" height="1" fill="rgb(217,70,239)"/><rect x="13" y="9" width="1" height="1" fill="rgb(217,70,239)"/><rect x="15" y="9" width="1" height="1" fill="rgb(217,70,239)"/><rect x="4" y="10" width="1" height="1" fill="rgb(217,70,239)"/><rect x="6" y="10" width="1" height="1" fill="rgb(217,70,239)"/><rect x="9" y="10" width="1" height="1" fill="rgb(217,70,239)"/><rect x="10" y="10" width="1" height="1" fill="rgb(217,70,239)"/><rect x="13" y="10" width="1" height="1" fill="rgb(217,70,239)"/><rect x="15" y="10" width="1" height="1" fill="rgb(217,70,239)"/><rect x="4" y="11" width="1" height="1" fill="rgb(217,70,239)"/><rect x="6" y="11" width="1" height="1" fill="rgb(217,70,239)"/><rect x="8" y="11" width="1" height="1" fill="rgb(255,255,255)"/><rect x="9" y="11" width="1" height="1" fill="rgb(217,70,239)"/><rect x="10" y="11" width="1" height="1" fill="rgb(217,70,239)"/><rect x="11" y="11" width="1" height="1" fill="rgb(255,255,255)"/><rect x="13" y="11" width="1" height="1" fill="rgb(217,70,239)"/><rect x="15" y="11" width="1" height="1" fill="rgb(217,70,239)"/><rect x="4" y="12" width="1" height="1" fill="rgb(217,70,239)"/><rect x="6" y="12" width="1" height="1" fill="rgb(217,70,239)"/><rect x="9" y="12" width="1" height="1" fill="rgb(217,70,239)"/><rect x="10" y="12" width="1" height="1" fill="rgb(217,70,239)"/><rect x="13" y="12" width="1" height="1" fill="rgb(217,70,239)"/><rect x="15" y="12" width="1" height="1" fill="rgb(217,70,239)"/><rect x="4" y="13" width="1" height="1" fill="rgb(217,70,239)"/><rect x="5" y="13" width="1" height="1" fill="rgb(217,70,239)"/><rect x="6" y="13" width="1" height="1" fill="rgb(217,70,239)"/><rect x="7" y="13" width="1" height="1" fill="rgb(217,70,239)"/><rect x="8" y="13" width="1" height="1" fill="rgb(217,70,239)"/><rect x="9" y="13" width="1" height="1" fill="rgb(217,70,239)"/><rect x="10" y="13" width="1" height="1" fill="rgb(217,70,239)"/><rect x="11" y="13" width="1" height="1" fill="rgb(217,70,239)"/><rect x="12" y="13" width="1" height="1" fill="rgb(217,70,239)"/><rect x="13" y="13" width="1" height="1" fill="rgb(217,70,239)"/><rect x="14" y="13" width="1" height="1" fill="rgb(217,70,239)"/><rect x="15" y="13" width="1" height="1" fill="rgb(217,70,239)"/><rect x="5" y="14" width="1" height="1" fill="rgb(217,70,239)"/><rect x="6" y="14" width="1" height="1" fill="rgb(217,70,239)"/><rect x="7" y="14" width="1" height="1" fill="rgb(217,70,239)"/><rect x="8" y="14" width="1" height="1" fill="rgb(217,70,239)"/><rect x="9" y="14" width="1" height="1" fill="rgb(139,26,139)"/><rect x="10" y="14" width="1" height="1" fill="rgb(139,26,139)"/><rect x="11" y="14" width="1" height="1" fill="rgb(217,70,239)"/><rect x="12" y="14" width="1" height="1" fill="rgb(217,70,239)"/><rect x="13" y="14" width="1" height="1" fill="rgb(217,70,239)"/><rect x="14" y="14" width="1" height="1" fill="rgb(217,70,239)"/><rect x="6" y="15" width="1" height="1" fill="rgb(217,70,239)"/><rect x="7" y="15" width="1" height="1" fill="rgb(217,70,239)"/><rect x="8" y="15" width="1" height="1" fill="rgb(217,70,239)"/><rect x="9" y="15" width="1" height="1" fill="rgb(217,70,239)"/><rect x="10" y="15" width="1" height="1" fill="rgb(217,70,239)"/><rect x="11" y="15" width="1" height="1" fill="rgb(217,70,239)"/><rect x="12" y="15" width="1" height="1" fill="rgb(217,70,239)"/><rect x="13" y="15" width="1" height="1" fill="rgb(217,70,239)"/><rect x="7" y="16" width="1" height="1" fill="rgb(217,70,239)"/><rect x="12" y="16" width="1" height="1" fill="rgb(217,70,239)"/><rect x="6" y="17" width="1" height="1" fill="rgb(217,70,239)"/><rect x="13" y="17" width="1" height="1" fill="rgb(217,70,239)"/></svg>